<?xml version="1.0" encoding="UTF-8"?>
<svg id="Layer_1" xmlns="http://www.w3.org/2000/svg" version="1.1" viewBox="0 0 1080 1080">
  <!-- Generator: Adobe Illustrator 29.8.2, SVG Export Plug-In . SVG Version: 2.1.1 Build 3)  -->
  <defs>
    <style>
      .st0 {
        fill: #0b1129;
      }

      .st1 {
        fill: #8ffbb9;
      }
    </style>
  </defs>
  <rect class="st1" x="0" y="0" width="1079.99" height="1079.99"/>
  <g>
    <path class="st0" d="M78.43,557.7c0,2.31-.36,4.45-1.25,7.12l-4.09,11.39c-2.14,5.69-.36,9.96,3.91,9.96s7.12-3.2,9.07-8.36c3.38-8.9,2.31-16.37-2.85-35.05l-1.42-5.34c-4.45-16.55-7.29-32.38-1.96-47.33,7.29-20.1,20.1-29.36,37.72-29.36,19.75,0,30.96,16.19,22.24,40.74-1.42,3.91-2.49,6.94-2.49,9.96h-23.48c0-2.67.18-5.16,1.6-8.9l4.63-12.81c2.13-5.69-.36-8.54-4.09-8.54-4.8,0-7.47,3.38-9.79,9.79-3.56,9.96-.18,24.02,2.31,33.27l1.42,5.34c4.63,17.26,8.36,32.74,2.49,48.75-7.47,20.28-21.53,28.29-38.07,28.29-20.46,0-30.07-16.55-22.24-38.79,1.96-5.52,2.49-7.65,2.67-10.14h23.66Z"/>
    <path class="st0" d="M215.78,462.52l-8.36,23.13h-17.79l-43.41,119.21h-26.69l43.41-119.21h-17.79l8.36-23.13h62.27Z"/>
    <path class="st0" d="M246.38,462.52c19.93,0,33.8,18.5,21.88,51.06-5.52,15.12-14.41,25.62-28.47,34.69l-6.23,56.58h-26.15l9.07-52.49h-2.67l-17.97,52.49h-26.69l51.77-142.33h25.44ZM222,532.79h1.6c6.4,0,11.56-2.85,14.41-10.32l8.54-22.95c4.27-11.39-.18-15.66-5.69-15.66h-1.07l-17.79,48.93Z"/>
    <path class="st0" d="M318.61,462.52l-51.77,142.33h-26.69l51.77-142.33h26.69Z"/>
    <path class="st0" d="M322.88,462.52h26.33l-22.24,75.61h1.78l32.91-75.61h26.33v1.78l-65.3,140.55h-37.36l37.54-142.33Z"/>
    <path class="st0" d="M441.19,462.52l-8.54,23.13h-21.35l-12.81,35.58h18.68l-8.54,23.13h-18.68l-13.52,37.36h21.35l-8.36,23.13h-48.04l51.77-142.33h48.04Z"/>
    <path class="st0" d="M472.33,462.52c19.93,0,33.8,18.5,21.88,51.06-5.52,15.12-14.41,25.62-28.47,34.69l-6.23,56.58h-26.15l9.07-52.49h-2.67l-17.97,52.49h-26.69l51.77-142.33h25.44ZM447.95,532.79h1.6c6.4,0,11.56-2.85,14.41-10.32l8.54-22.95c4.27-11.39-.18-15.66-5.69-15.66h-1.07l-17.79,48.93Z"/>
    <path class="st0" d="M496.52,576.38l-10.32,28.47h-20.46l10.32-28.47h20.46Z"/>
    <path class="st0" d="M546.87,462.52h48.04l-8.54,23.13h-21.35l-12.81,35.58h17.79l-8.54,23.13h-17.79l-21.88,60.49h-26.69l51.77-142.33Z"/>
    <path class="st0" d="M574.45,523.9c14.59-39.32,32.92-63.16,55.15-63.16,18.68,0,34.16,19.57,15.3,70.28l-4.63,12.45c-14.59,39.32-32.91,63.16-55.15,63.16-18.68,0-34.34-18.86-15.3-70.28l4.63-12.46ZM585.13,574.78c-2.13,5.87,0,9.61,4.63,9.61,4.27,0,7.29-3.2,9.43-9.07l30.42-83.62c2.13-5.87,0-9.61-4.63-9.61-4.27,0-7.29,3.2-9.43,9.07l-30.42,83.62Z"/>
    <path class="st0" d="M652.55,523.9c14.59-39.32,32.92-63.16,55.15-63.16,18.68,0,34.16,19.57,15.3,70.28l-4.63,12.45c-14.59,39.32-32.91,63.16-55.15,63.16-18.68,0-34.34-18.86-15.3-70.28l4.63-12.46ZM663.23,574.78c-2.13,5.87,0,9.61,4.63,9.61,4.27,0,7.29-3.2,9.43-9.07l30.42-83.62c2.13-5.87,0-9.61-4.63-9.61-4.27,0-7.29,3.2-9.43,9.07l-30.42,83.62Z"/>
    <path class="st0" d="M805.21,462.52l-8.36,23.13h-17.79l-43.41,119.21h-26.69l43.41-119.21h-17.79l8.36-23.13h62.27Z"/>
    <path class="st0" d="M834.03,462.52c22.59,0,35.76,18.86,26.51,44.3-6.05,16.72-19.75,25.44-34.16,28.82v1.78c10.32,6.58,16.19,20.46,10.32,36.83-7.65,21.35-28.11,30.6-50.88,30.6h-27.22l51.77-142.33h23.66ZM792.93,583.5h1.78c6.23,0,12.81-3.2,16.37-13.17l3.2-9.07c3.91-10.85.36-16.01-6.05-16.01h-1.42l-13.88,38.25ZM814.63,523.9h1.78c6.23,0,11.74-3.02,15.3-12.63l4.8-13.17c3.56-9.79.36-14.23-5.87-14.23h-1.42l-14.59,40.03Z"/>
    <path class="st0" d="M931.88,462.52l-38.07,142.33h-25.26l9.25-33.8h-9.96l-15.3,33.8h-24.02v-1.78l64.23-140.55h39.14ZM885.98,547.92l13.88-48.93h-1.78l-21.71,48.93h9.61Z"/>
    <path class="st0" d="M976.71,462.52l-43.41,119.21h22.24l-8.36,23.13h-48.93l51.77-142.33h26.69Z"/>
    <path class="st0" d="M1030.62,462.52l-43.41,119.21h22.24l-8.36,23.13h-48.93l51.77-142.33h26.69Z"/>
  </g>
</svg>