<?xml version="1.0" encoding="UTF-8"?>
<svg id="Layer_1" xmlns="http://www.w3.org/2000/svg" version="1.1" viewBox="0 0 1080 1080">
  <!-- Generator: Adobe Illustrator 29.8.2, SVG Export Plug-In . SVG Version: 2.1.1 Build 3)  -->
  <defs>
    <style>
      .st0 {
        fill: #0b1129;
      }

      .st1 {
        fill: #8ffbb9;
      }
    </style>
  </defs>
  <rect class="st1" x="0" y="0" width="1079.99" height="1079.99"/>
  <g>
    <path class="st0" d="M151.66,587.69c0,4.59-.71,8.83-2.47,14.13l-8.12,22.61c-4.24,11.3-.71,19.78,7.77,19.78s14.13-6.36,18.02-16.6c6.71-17.67,4.59-32.5-5.65-69.6l-2.83-10.6c-8.83-32.86-14.48-64.3-3.89-93.97,14.48-39.92,39.92-58.29,74.9-58.29,39.21,0,61.47,32.15,44.16,80.9-2.83,7.77-4.95,13.78-4.95,19.78h-46.63c0-5.3.35-10.24,3.18-17.66l9.19-25.44c4.24-11.3-.71-16.96-8.12-16.96-9.54,0-14.84,6.71-19.43,19.43-7.07,19.78-.35,47.69,4.59,66.06l2.83,10.6c9.19,34.27,16.6,65,4.95,96.8-14.84,40.27-42.75,56.17-75.6,56.17-40.63,0-59.7-32.86-44.16-77.01,3.89-10.95,4.94-15.19,5.3-20.14h46.99Z"/>
    <path class="st0" d="M424.39,398.69l-16.6,45.93h-35.33l-86.2,236.7h-52.99l86.2-236.7h-35.33l16.6-45.93h123.65Z"/>
    <path class="st0" d="M485.15,398.69c39.57,0,67.12,36.74,43.45,101.39-10.95,30.03-28.62,50.87-56.52,68.89l-12.37,112.34h-51.93l18.02-104.22h-5.3l-35.68,104.22h-52.99l102.8-282.62h50.52ZM436.75,538.23h3.18c12.72,0,22.96-5.65,28.62-20.49l16.96-45.57c8.48-22.61-.35-31.09-11.3-31.09h-2.12l-35.33,97.15Z"/>
    <path class="st0" d="M628.58,398.69l-102.8,282.62h-52.99l102.8-282.62h52.99Z"/>
    <path class="st0" d="M637.05,398.69h52.28l-44.16,150.14h3.53l65.35-150.14h52.29v3.53l-129.65,279.09h-74.19l74.54-282.62Z"/>
    <path class="st0" d="M871.98,398.69l-16.96,45.93h-42.39l-25.43,70.66h37.09l-16.96,45.93h-37.09l-26.85,74.19h42.39l-16.6,45.93h-95.38l102.8-282.62h95.39Z"/>
    <path class="st0" d="M933.8,398.69c39.57,0,67.12,36.74,43.45,101.39-10.95,30.03-28.62,50.87-56.52,68.89l-12.37,112.34h-51.93l18.02-104.22h-5.3l-35.68,104.22h-52.99l102.8-282.62h50.52ZM885.4,538.23h3.18c12.72,0,22.96-5.65,28.62-20.49l16.96-45.57c8.48-22.61-.35-31.09-11.3-31.09h-2.12l-35.33,97.15Z"/>
  </g>
</svg>